<svg viewBox="0 0 1100 1000" xmlns="http://www.w3.org/2000/svg" role="img">
<title>SOC HomeLab Architecture</title>
<desc>Enterprise SOC laboratory architecture with four VLANs segmented through pfSense (Suricata IDS package, OpenVPN), corporate domain, isolated software development network, dedicated attacker DMZ, and out-of-band SOC management plane.</desc>

<style>
  text { font-family: -apple-system, BlinkMacSystemFont, "Segoe UI", Inter, Roboto, "Helvetica Neue", Arial, sans-serif; fill: #0F172A; }
  .title { font-size: 24px; font-weight: 600; letter-spacing: -0.01em; }
  .subtitle { font-size: 14px; font-weight: 400; fill: #64748B; }
  .zone-label { font-size: 11px; font-weight: 700; fill: #64748B; letter-spacing: 0.12em; }
  .vlan-title { font-size: 16px; font-weight: 600; }
  .vlan-cidr { font-size: 12px; font-family: ui-monospace, "SF Mono", "Cascadia Code", Consolas, Monaco, monospace; }
  .host-name { font-size: 14px; font-weight: 600; }
  .host-ip { font-size: 12px; font-family: ui-monospace, "SF Mono", Consolas, monospace; fill: #64748B; }
  .host-role { font-size: 12px; fill: #475569; }
  .pfsense-name { font-size: 20px; font-weight: 600; }
  .pfsense-sub { font-size: 13px; fill: #475569; }
  .pfsense-detail { font-size: 12px; fill: #64748B; font-family: ui-monospace, "SF Mono", Consolas, monospace; }
  .arrow-label { font-size: 12px; font-weight: 500; fill: #475569; }
  .legend { font-size: 12px; fill: #475569; }
</style>

<defs>
  <marker id="arr-gray" viewBox="0 0 10 10" refX="9" refY="5" markerWidth="7" markerHeight="7" orient="auto">
    <path d="M0 1L8 5L0 9" fill="none" stroke="#94A3B8" stroke-width="1.5" stroke-linecap="round" stroke-linejoin="round"/>
  </marker>
  <marker id="arr-green" viewBox="0 0 10 10" refX="9" refY="5" markerWidth="7" markerHeight="7" orient="auto">
    <path d="M0 1L8 5L0 9" fill="none" stroke="#059669" stroke-width="1.5" stroke-linecap="round" stroke-linejoin="round"/>
  </marker>
  <marker id="arr-indigo" viewBox="0 0 10 10" refX="9" refY="5" markerWidth="7" markerHeight="7" orient="auto">
    <path d="M0 1L8 5L0 9" fill="none" stroke="#6366F1" stroke-width="1.5" stroke-linecap="round" stroke-linejoin="round"/>
  </marker>
  <marker id="arr-teal" viewBox="0 0 10 10" refX="9" refY="5" markerWidth="7" markerHeight="7" orient="auto">
    <path d="M0 1L8 5L0 9" fill="none" stroke="#0D9488" stroke-width="1.5" stroke-linecap="round" stroke-linejoin="round"/>
  </marker>
  <marker id="arr-red" viewBox="0 0 10 10" refX="9" refY="5" markerWidth="7" markerHeight="7" orient="auto">
    <path d="M0 1L8 5L0 9" fill="none" stroke="#DC2626" stroke-width="1.5" stroke-linecap="round" stroke-linejoin="round"/>
  </marker>
</defs>

<rect x="0" y="0" width="1100" height="1000" fill="white" stroke="#E2E8F0" stroke-width="1"/>

<text x="550" y="40" text-anchor="middle" class="title">SOC HomeLab — Network Architecture</text>
<text x="550" y="66" text-anchor="middle" class="subtitle">VLAN-segmented security operations laboratory · pfSense routing · Wazuh + Splunk SIEM · out-of-band management</text>

<rect x="475" y="100" width="150" height="56" rx="8" fill="white" stroke="#94A3B8" stroke-width="1.5"/>
<text x="550" y="124" text-anchor="middle" class="host-name">Internet</text>
<text x="550" y="143" text-anchor="middle" class="host-role">NAT outbound</text>

<line x1="550" y1="158" x2="550" y2="215" stroke="#94A3B8" stroke-width="1.5" marker-end="url(#arr-gray)"/>

<rect x="50" y="185" width="650" height="170" rx="14" fill="#F8FAFC" stroke="#94A3B8" stroke-width="1.5" stroke-dasharray="6 4"/>
<text x="68" y="208" class="zone-label">PERIMETER · EDGE SECURITY</text>

<rect x="220" y="225" width="380" height="115" rx="10" fill="white" stroke="#334155" stroke-width="2"/>
<rect x="220" y="225" width="6" height="115" fill="#334155"/>
<text x="410" y="254" text-anchor="middle" class="pfsense-name">pfSense CE</text>
<text x="410" y="280" text-anchor="middle" class="pfsense-sub">Router · Firewall · Suricata IDS · OpenVPN</text>
<text x="410" y="313" text-anchor="middle" class="pfsense-detail">10.10.X.1 gateway per VLAN</text>

<rect x="730" y="185" width="320" height="170" rx="14" fill="#FEE2E2" fill-opacity="0.45" stroke="#DC2626" stroke-width="1.5"/>
<text x="750" y="208" class="vlan-title" fill="#7F1D1D">VLAN 66 — Attacker DMZ</text>
<text x="750" y="227" class="vlan-cidr" fill="#991B1B">10.10.66.0/24</text>

<rect x="750" y="243" width="280" height="95" rx="6" fill="white" stroke="#FECACA" stroke-width="1"/>
<rect x="750" y="243" width="4" height="95" fill="#DC2626"/>
<text x="766" y="266" class="host-name">Kali Linux</text>
<text x="766" y="287" class="host-ip">10.10.66.10</text>
<text x="766" y="313" class="host-role">Adversary emulation host + toolkit</text>

<line x1="730" y1="285" x2="608" y2="285" stroke="#DC2626" stroke-width="1.5" stroke-dasharray="5 3" marker-end="url(#arr-red)"/>
<text x="669" y="274" text-anchor="middle" class="arrow-label" fill="#DC2626">attack traffic</text>

<line x1="410" y1="355" x2="410" y2="378" stroke="#94A3B8" stroke-width="1.5"/>
<path d="M 410 378 L 255 378 L 255 405" fill="none" stroke="#94A3B8" stroke-width="1.5" marker-end="url(#arr-gray)"/>
<path d="M 410 378 L 805 378 L 805 405" fill="none" stroke="#94A3B8" stroke-width="1.5" marker-end="url(#arr-gray)"/>

<rect x="40" y="415" width="430" height="240" rx="14" fill="#DBEAFE" fill-opacity="0.45" stroke="#3B82F6" stroke-width="1.5"/>
<text x="60" y="440" class="vlan-title" fill="#1E3A8A">VLAN 10 — Corporate Domain</text>
<text x="60" y="458" class="vlan-cidr" fill="#1E40AF">10.10.10.0/24</text>

<rect x="60" y="475" width="390" height="75" rx="6" fill="white" stroke="#BFDBFE" stroke-width="1"/>
<rect x="60" y="475" width="4" height="75" fill="#3B82F6"/>
<text x="76" y="496" class="host-name">Windows Server 2022</text>
<text x="76" y="515" class="host-ip">10.10.10.10</text>
<text x="76" y="537" class="host-role">Active Directory DC + Sysmon + Wazuh Agent</text>

<rect x="60" y="560" width="390" height="75" rx="6" fill="white" stroke="#BFDBFE" stroke-width="1"/>
<rect x="60" y="560" width="4" height="75" fill="#3B82F6"/>
<text x="76" y="581" class="host-name">Windows 11 Pro — Corporate</text>
<text x="76" y="600" class="host-ip">10.10.10.20</text>
<text x="76" y="622" class="host-role">Domain workstation + Sysmon + Wazuh Agent</text>

<rect x="590" y="415" width="430" height="240" rx="14" fill="#EDE9FE" fill-opacity="0.5" stroke="#8B5CF6" stroke-width="1.5"/>
<text x="610" y="440" class="vlan-title" fill="#4C1D95">VLAN 20 — Software Development</text>
<text x="610" y="458" class="vlan-cidr" fill="#5B21B6">10.10.20.0/24</text>

<rect x="610" y="475" width="390" height="75" rx="6" fill="white" stroke="#DDD6FE" stroke-width="1"/>
<rect x="610" y="475" width="4" height="75" fill="#8B5CF6"/>
<text x="626" y="496" class="host-name">Windows 11 Pro — Dev</text>
<text x="626" y="515" class="host-ip">10.10.20.10</text>
<text x="626" y="537" class="host-role">Dev workstation + Sysmon + Wazuh Agent</text>

<rect x="610" y="560" width="390" height="75" rx="6" fill="white" stroke="#DDD6FE" stroke-width="1"/>
<rect x="610" y="560" width="4" height="75" fill="#8B5CF6"/>
<text x="626" y="581" class="host-name">Ubuntu Desktop 24.04 — Dev</text>
<text x="626" y="600" class="host-ip">10.10.20.20</text>
<text x="626" y="622" class="host-role">Dev workstation + Auditd + Wazuh Agent</text>

<line x1="475" y1="597" x2="585" y2="597" stroke="#059669" stroke-width="2.5" stroke-dasharray="6 3" marker-end="url(#arr-green)"/>
<text x="530" y="588" text-anchor="middle" class="arrow-label" fill="#059669">VPN / RDP</text>

<path d="M 255 655 L 255 695 L 450 695 L 450 730" fill="none" stroke="#6366F1" stroke-width="1.5" stroke-dasharray="5 3" marker-end="url(#arr-indigo)"/>
<path d="M 805 655 L 805 695 L 650 695 L 650 730" fill="none" stroke="#6366F1" stroke-width="1.5" stroke-dasharray="5 3" marker-end="url(#arr-indigo)"/>
<text x="550" y="688" text-anchor="middle" class="arrow-label" fill="#6366F1">Wazuh agent telemetry · TCP 1514</text>

<rect x="180" y="735" width="740" height="195" rx="14" fill="#CCFBF1" fill-opacity="0.5" stroke="#0D9488" stroke-width="1.5"/>
<text x="200" y="760" class="vlan-title" fill="#134E4A">VLAN 99 — SOC Management Operations</text>
<text x="200" y="778" class="vlan-cidr" fill="#0F766E">10.10.99.0/24 · out-of-band</text>

<rect x="200" y="800" width="290" height="105" rx="6" fill="white" stroke="#99F6E4" stroke-width="1"/>
<rect x="200" y="800" width="4" height="105" fill="#0D9488"/>
<text x="216" y="825" class="host-name">Ubuntu Server 24.04</text>
<text x="216" y="846" class="host-ip">10.10.99.10</text>
<text x="216" y="871" class="host-role">Wazuh Manager + Indexer +</text>
<text x="216" y="889" class="host-role">Dashboard + Suricata ingestion</text>

<line x1="498" y1="852" x2="602" y2="852" stroke="#0D9488" stroke-width="2" marker-end="url(#arr-teal)"/>
<text x="550" y="843" text-anchor="middle" class="arrow-label" fill="#0D9488">HEC :8088</text>
<text x="550" y="872" text-anchor="middle" class="arrow-label" fill="#0D9488" style="font-size: 11px;">structured JSON events</text>

<rect x="610" y="800" width="290" height="105" rx="6" fill="white" stroke="#99F6E4" stroke-width="1"/>
<rect x="610" y="800" width="4" height="105" fill="#0D9488"/>
<text x="626" y="825" class="host-name">Ubuntu Server 24.04</text>
<text x="626" y="846" class="host-ip">10.10.99.20</text>
<text x="626" y="871" class="host-role">Splunk Enterprise SIEM</text>
<text x="626" y="889" class="host-role">HEC + Web UI + correlation</text>

<text x="60" y="965" class="zone-label">DATA FLOWS</text>
<line x1="160" y1="961" x2="192" y2="961" stroke="#94A3B8" stroke-width="1.5" marker-end="url(#arr-gray)"/>
<text x="202" y="965" class="legend">Routed</text>
<line x1="280" y1="961" x2="312" y2="961" stroke="#059669" stroke-width="2" stroke-dasharray="5 3" marker-end="url(#arr-green)"/>
<text x="322" y="965" class="legend">VPN / RDP</text>
<line x1="420" y1="961" x2="452" y2="961" stroke="#6366F1" stroke-width="1.5" stroke-dasharray="5 3" marker-end="url(#arr-indigo)"/>
<text x="462" y="965" class="legend">Agent telemetry</text>
<line x1="610" y1="961" x2="642" y2="961" stroke="#0D9488" stroke-width="2" marker-end="url(#arr-teal)"/>
<text x="652" y="965" class="legend">HEC ingestion</text>
<line x1="780" y1="961" x2="812" y2="961" stroke="#DC2626" stroke-width="1.5" stroke-dasharray="5 3" marker-end="url(#arr-red)"/>
<text x="822" y="965" class="legend">Attack traffic</text>
</svg>
